# xmcd
#
# Track frame offsets: 
#        150
#        12313
#        24866
#        36648
#        48696
#        59630
#        73127
#        83615
#        93390
#        104341
#        115449
#        128413
#        140366
#        152104
#        163773
#        175515
#        187204
#        198298
#        208231
#        216712
#        227178
#        237618
#        247023
#        259259
#        269768
#        282004
#
# Disc length: 3885 seconds
#
# Revision: 0
# Processed by: cddbd v1.5.2PL0 Copyright (c) Steve Scherf et al.
# Submitted via: ExactAudioCopyFreeDBPlugin 1.0
#
DISCID=970f2b1a
DTITLE=Bobby "Blue" Bland - It's My Life, Baby: The Singles As and Bs 19
DTITLE=51-1960 CD 2
DYEAR=2015
DGENRE=Blues
TTITLE0=I Don't Believe
TTITLE1=I Learned My Lesson
TTITLE2=I Smell Trouble
TTITLE3=Don't Want to Woman
TTITLE4=Sometime Tomorrow
TTITLE5=Further on Up the Road
TTITLE6=Bobby's Blues
TTITLE7=Teach Me How to Love You
TTITLE8=Loan a Heaping Hand
TTITLE9=You Got Me (Where You Want Me)
TTITLE10=Last Night
TTITLE11=Little Boy Blue
TTITLE12=You Did Me Wrong
TTITLE13=I Lost Sight of the World
TTITLE14=I'm Ashamed
TTITLE15=Wishing Well
TTITLE16=Is It Real
TTITLE17=Someday
TTITLE18=That's Why
TTITLE19=I'll Take Care of You
TTITLE20=Hold Me Tenderly
TTITLE21=Lead Me On
TTITLE22=Cry Cry Cry
TTITLE23=I've Been Wrong for So Long
TTITLE24=I Pity the Fool
TTITLE25=Close to You
EXTD=
EXTT0=
EXTT1=
EXTT2=
EXTT3=
EXTT4=
EXTT5=
EXTT6=
EXTT7=
EXTT8=
EXTT9=
EXTT10=
EXTT11=
EXTT12=
EXTT13=
EXTT14=
EXTT15=
EXTT16=
EXTT17=
EXTT18=
EXTT19=
EXTT20=
EXTT21=
EXTT22=
EXTT23=
EXTT24=
EXTT25=
PLAYORDER=
